<?xml version="1.0" encoding="utf-8"?>
<!-- Generator: Adobe Illustrator 28.1.0, SVG Export Plug-In . SVG Version: 6.00 Build 0)  -->
<svg version="1.1" id="Capa_1" xmlns="http://www.w3.org/2000/svg" xmlns:xlink="http://www.w3.org/1999/xlink" x="0px" y="0px"
	 viewBox="0 0 1920 418.7" style="enable-background:new 0 0 1920 418.7;" xml:space="preserve">
<g>
	<g>
		<path d="M126.9,269V66.3h67.8v220.5h51.1v65h-33.3C163.6,352.3,126.9,320.7,126.9,269z"/>
		<path d="M270.2,267.4c0-43.9,35.5-75.5,81.6-82.2l101.1-14.4v-2.2c0-23.3-20.5-43.3-53.9-43.3c-35,0-50.5,21.1-52.8,41.1h-66.1
			c2.8-63.9,53.9-105,119.4-105c82.2,0,121.1,56.1,121.1,105.5v185.5h-67.8v-25c-8.3,11.7-40,30-80.5,30
			C316.3,356.8,270.2,328.5,270.2,267.4z M375.7,295.7c56.7,0,77.2-33.3,77.2-56.1v-10l-86.6,12.8c-16.1,2.2-25.5,12.8-25.5,25.5
			C340.7,285.7,355.7,295.7,375.7,295.7z"/>
		<path d="M1056.6,267.4c0-43.9,35.5-75.5,81.6-82.2l101.1-14.4v-2.2c0-23.3-20.5-43.3-53.9-43.3c-35,0-50.5,21.1-52.8,41.1h-66.1
			c2.8-63.9,53.9-105,119.4-105c82.2,0,121.1,56.1,121.1,105.5v185.5h-67.8v-25c-8.3,11.7-40,30-80.5,30
			C1103.3,356.8,1056.6,328.5,1056.6,267.4z M1162.2,295.7c56.7,0,77.2-33.3,77.2-56.1v-10l-86.6,12.8
			c-16.1,2.2-25.5,12.8-25.5,25.5C1127.7,285.7,1142.2,295.7,1162.2,295.7z"/>
		<path d="M1356,66.3h67.8v19.4c7.8-9.4,23.3-19.4,60.5-19.4h41.7v65h-41.7c-38.9,0-60.5,21.1-60.5,62.8v158.3H1356V66.3z"/>
		<path d="M1542.6,267.4c0-43.9,35.5-75.5,81.6-82.2l101.1-14.4v-2.2c0-23.3-20.5-43.3-53.9-43.3c-35,0-50.5,21.1-52.8,41.1h-66.1
			c2.8-63.9,53.9-105,119.4-105c82.2,0,121.1,56.1,121.1,105.5v185.5h-67.8v-25c-8.3,11.7-40,30-80.5,30
			C1588.7,356.8,1542.6,328.5,1542.6,267.4z M1648.1,295.7c56.7,0,77.2-33.3,77.2-56.1v-10l-86.6,12.8
			c-16.1,2.2-25.5,12.8-25.5,25.5C1613.1,285.7,1628.1,295.7,1648.1,295.7z"/>
	</g>
	<path d="M944.4,66.3v163.3c0,41.1-20.5,57.8-59.4,57.8c-19.4,0-52.8,0-52.8,0s0-37.2,0-57.8V66.3h-2.8h-42.8h-27.8v163.3
		c0,41.1-20.5,57.8-59.4,57.8c-19.4,0-52.8,0-52.8,0s0-37.2,0-57.8V66.3h-76.6v285.5h70.5c0,0,86.1,0,97.7-1.1
		c19.4-1.7,36.1-21.1,48.3-31.7v32.8H825c0,0,96.1,1.7,107.2-1.1c52.8-13.9,82.2-57.8,82.2-121.1V66.3H944.4z"/>
</g>
</svg>
