<?xml version="1.0" encoding="utf-8"?>
<!-- Generator: Adobe Illustrator 28.1.0, SVG Export Plug-In . SVG Version: 6.00 Build 0)  -->
<svg version="1.1" id="Capa_1" xmlns="http://www.w3.org/2000/svg" xmlns:xlink="http://www.w3.org/1999/xlink" x="0px" y="0px"
	 viewBox="0 0 14400 14400" style="enable-background:new 0 0 14400 14400;" xml:space="preserve">
<path d="M7524.4,6893.7v348.6c0,87.7-43.9,123.3-126.9,123.3c-41.5,0-112.6,0-112.6,0s0-79.4,0-123.3v-348.6h-5.9h-91.3h-59.3v348.6
	c0,87.7-43.9,123.3-126.9,123.3c-41.5,0-112.6,0-112.6,0s0-79.4,0-123.3v-348.6h-163.6v609.4h150.6c0,0,183.8,0,208.7-2.4
	c41.5-3.6,77.1-45.1,103.2-67.6v70h81.8c0,0,205.1,3.6,228.8-2.4c112.6-29.6,175.5-123.3,175.5-258.5v-348.6H7524.4z"/>
</svg>
